<?xml version="1.0" standalone="no"?>
<!DOCTYPE svg PUBLIC "-//W3C//DTD SVG 20010904//EN"
 "http://www.w3.org/TR/2001/REC-SVG-20010904/DTD/svg10.dtd">
<svg version="1.0" xmlns="http://www.w3.org/2000/svg"
 width="248.000000pt" height="247.000000pt" viewBox="0 0 248.000000 247.000000"
 preserveAspectRatio="xMidYMid meet">
<metadata>
Created by potrace 1.16, written by Peter Selinger 2001-2019
</metadata>
<g transform="translate(0.000000,247.000000) scale(0.100000,-0.100000)"
fill="#000000" stroke="none">
<path d="M1067 2420 c-599 -94 -1027 -591 -1027 -1191 0 -572 411 -1066 977
-1175 116 -22 320 -23 435 0 382 73 706 323 868 668 42 91 84 225 100 321 15
94 12 313 -5 406 -71 371 -312 690 -652 860 -76 38 -187 76 -285 97 -86 19
-328 27 -411 14z m-139 -435 c74 -18 103 -31 166 -80 l47 -36 39 31 c175 139
423 122 580 -40 79 -81 110 -146 110 -227 0 -83 14 -115 90 -199 79 -88 114
-140 107 -158 -3 -8 -24 -27 -47 -41 -45 -28 -49 -44 -20 -70 25 -23 25 -37 0
-60 -18 -16 -19 -20 -5 -35 20 -22 11 -44 -22 -59 -26 -12 -27 -17 -2 -78 11
-26 11 -36 0 -57 -24 -44 -67 -56 -196 -56 -81 0 -124 -4 -144 -14 -91 -47
-179 -316 -141 -431 7 -21 28 -55 47 -76 l35 -38 -60 23 c-179 70 -319 230
-377 428 -16 56 -25 66 -311 345 -162 159 -310 311 -329 338 -48 70 -67 129
-68 210 -3 199 138 352 353 385 70 11 81 11 148 -5z"/>
</g>
</svg>
